<?xml version="1.0" encoding="UTF-8"?>
<svg width="48pt" height="48pt" style="isolation:isolate" version="1.1" viewBox="0 0 48 48" xmlns="http://www.w3.org/2000/svg"><linearGradient id="_lgradient_1" x2=".90749" y1=".5" y2=".92008" gradientTransform="matrix(45.953,0,0,38.048,1.048,4.184)" gradientUnits="userSpaceOnUse"><stop stop-color="#00c4ff" offset="0"/><stop stop-color="#0072ff" offset=".83888"/></linearGradient><path d="m16.563 4.246c-0.207-0.066-0.433-0.076-0.663-0.046-1.26 0.16-2.51 0.42-3.72 0.79-0.94 0.28-1.84 0.69-2.67 1.22-0.69 0.45-1.31 1.01-1.83 1.64-0.43 0.54-0.83 1.09-1.2 1.67-0.25 0.37-0.5 0.74-0.76 1.11-1.6 2.62-2.79 5.47-3.53 8.45-0.79 3.22-1.17 6.53-1.14 9.84 0 2.58 0.19 5.15 0.55 7.7 0.71 0.86 1.46 1.7 2.24 2.5 0.6 0.61 1.25 1.17 1.96 1.65 0.73 0.49 1.53 0.87 2.37 1.11 0.91 0.25 1.84 0.37 2.77 0.35 0.87 0 1.74-0.08 2.59-0.21 1.04-0.16 2.06-0.36 3.08-0.6 0.58-0.13 1.06-0.52 1.33-1.05 0.75186-1.5046 0.78118-1.6355 1.5304-3.1414 1.053 0.101 2.8376 0.27612 3.9006 0.27112 1.476-7e-3 2.951-0.097 4.416-0.27l0.69915-0.08898c0.77807 1.5448 0.85031 1.6822 1.6238 3.2292 0.26 0.53 0.75 0.92 1.32 1.05 1.02 0.24 2.05 0.44 3.08 0.6 0.86 0.13 1.73 0.21 2.6 0.21 0.93 0.02 1.86-0.1 2.76-0.35 0.85-0.24 1.65-0.62 2.38-1.11 0.7-0.48 1.36-1.04 1.96-1.65 0.78-0.8 1.53-1.64 2.24-2.5 0.36-2.55 0.54-5.12 0.55-7.7 0.03-3.31-0.36-6.62-1.14-9.84-0.74-2.98-1.93-5.83-3.53-8.45-0.26-0.37-0.52-0.74-0.76-1.11-0.37-0.58-0.77-1.13-1.2-1.67-0.53-0.63-1.15-1.19-1.83-1.64-0.83-0.53-1.73-0.94-2.67-1.22-1.22-0.37-3.46-0.63-4.72-0.79-0.235-0.031-0.466-0.019-0.677 0.05-1.093-0.124-2.029 0.255-2.333 1.01l-1.582 3.956c-1.06-0.09-2.124-0.136-3.187-0.136-0.982-5e-3 -1.961 0.035-2.935 0.12l-1.576-3.94c-0.301-0.746-1.22-1.126-2.297-1.014zm-0.814 4.017c-0.819 0.132-1.63 0.32-2.429 0.557-0.57 0.17-1.12 0.42-1.63 0.74-0.34 0.23-0.65 0.51-0.92 0.83-0.33 0.41-0.65 0.85-0.93 1.3-0.26 0.39-0.52 0.77-0.78 1.14-1.35 2.24-2.36 4.67-2.98 7.2-0.71 2.91-1.06 5.88-1.03 8.87 0 2.02 0.12 4.03 0.36 6.03 0.42 0.48 0.85 0.95 1.3 1.4 0.41 0.42 0.85 0.8 1.34 1.13 0.37 0.25 0.78 0.44 1.21 0.57 0.53 0.14 1.08 0.21 1.64 0.2 0.68 0 1.35-0.06 2.03-0.16 0.62-0.1 1.24-0.21 1.86-0.34l0.71068-1.1627c-1.379-0.32-2.1787-0.61659-3.5097-1.1176-1.033-0.392-1.552-1.548-1.16-2.58 0.391-1.032 1.547-1.552 2.58-1.16 3.17 1.2 6.55 1.81 9.94 1.79 1.84 0 3.68-0.16 5.5-0.45 1.98-0.33 3.94-0.79 5.86-1.38 1.054-0.326 2.174 0.266 2.5 1.32 0.325 1.054-0.266 2.174-1.32 2.5-1.307 0.406-2.1127 0.62816-3.4537 0.91716l0.82266 1.3231c0.62 0.13 1.24 0.24 1.86 0.34 0.67 0.1 1.35 0.16 2.03 0.16 0.55 0.01 1.11-0.06 1.64-0.2 0.43-0.13 0.84-0.32 1.21-0.57 0.48-0.33 0.93-0.71 1.34-1.13 0.44-0.45 0.87-0.92 1.29-1.4 0.24-2 0.36-4.01 0.37-6.03 0.02-2.99-0.32-5.96-1.03-8.87-0.63-2.53-1.63-4.96-2.98-7.2-0.27-0.37-0.53-0.75-0.78-1.14-0.29-0.45-0.6-0.89-0.94-1.3-0.26-0.32-0.57-0.6-0.91-0.83-0.51-0.32-1.06-0.57-1.64-0.74-0.828-0.248-2.363-0.442-3.462-0.575l-0.616 1.54c1.776 0.337 3.529 0.77 5.249 1.305 1.054 0.326 1.645 1.446 1.32 2.5-0.326 1.054-1.446 1.646-2.5 1.32-1.833-0.563-3.703-1.008-5.591-1.334l-0.01 0.024-0.113-0.045c-0.049-9e-3 -0.098-0.017-0.146-0.025-1.82-0.3-3.66-0.45-5.5-0.45-1.825-0.011-3.646 0.161-5.433 0.509l-0.028 0.011-2e-3 -5e-3c-1.524 0.298-3.023 0.724-4.477 1.275-1.033 0.392-2.189-0.128-2.58-1.16-0.392-1.032 0.127-2.188 1.16-2.58 1.431-0.543 2.896-0.979 4.382-1.307zm-1.411 17.51c0-1.932 1.568-3.5 3.5-3.5s3.5 1.568 3.5 3.5-1.568 3.5-3.5 3.5-3.5-1.568-3.5-3.5zm12.324 0c0-1.932 1.568-3.5 3.5-3.5s3.5 1.568 3.5 3.5-1.568 3.5-3.5 3.5-3.5-1.568-3.5-3.5z" fill="url(#_lgradient_1)" fill-rule="evenodd"/></svg>
